<?xml version="1.0" encoding="UTF-8"?>
<svg width="28px" height="34px" viewBox="0 0 28 34" version="1.1" xmlns="http://www.w3.org/2000/svg" xmlns:xlink="http://www.w3.org/1999/xlink">
    <!-- Generator: Sketch 45.1 (43504) - http://www.bohemiancoding.com/sketch -->
    <title>race-info-time</title>
    <desc>Created with Sketch.</desc>
    <defs></defs>
    <g id="导出图片" stroke="none" stroke-width="1" fill="none" fill-rule="evenodd">
        <g id="race-info-time" fill="#F6AD34">
            <path d="M4.53558647,24.3190781 C1.74759653,21.7596584 0,18.0848624 0,14.0018935 C0,6.26886123 6.26886123,0 14.0018935,0 C21.7349257,0 28.0037869,6.26886123 28.0037869,14.0018935 C28.0037869,18.0848624 26.2561904,21.7596584 23.4682004,24.3190781 L23.6128157,24.3190781 L14.0018935,33.9300003 L4.39097127,24.3190781 L4.53558647,24.3190781 Z M13.9511292,19.9301846 C17.2532703,19.9301846 19.9301846,17.2532703 19.9301846,13.9511292 C19.9301846,10.6489881 17.2532703,7.97207382 13.9511292,7.97207382 C10.6489881,7.97207382 7.97207382,10.6489881 7.97207382,13.9511292 C7.97207382,17.2532703 10.6489881,19.9301846 13.9511292,19.9301846 Z" id="222"></path>
        </g>
    </g>
</svg>